<?xml version="1.0" standalone="no"?>
<!DOCTYPE svg PUBLIC "-//W3C//DTD SVG 1.1//EN" "http://www.w3.org/Graphics/SVG/1.1/DTD/svg11.dtd">
<svg xmlns="http://www.w3.org/2000/svg">
<defs >
<font id="IBMPlexSans" horiz-adv-x="572" ><font-face
    font-family="IBM Plex Sans ExtraLight"
    units-per-em="1000"
    panose-1="2 11 3 3 5 2 3 0 2 3"
    ascent="1025"
    descent="-275"
    alphabetic="0" />
<glyph unicode=" " glyph-name="space" horiz-adv-x="236" />
<glyph unicode="!" glyph-name="exclam" horiz-adv-x="260" d="M120 178L111 434V698H149V434L139 178H120ZM130 -7Q113 -7 104 2T95 26V35Q95 68 130 68Q165 68 165 35V26Q165 11 156 2T130 -7Z" />
<glyph unicode="&quot;" glyph-name="quotedbl" horiz-adv-x="383" d="M96 483V740H129V483H96ZM254 483V740H287V483H254Z" />
<glyph unicode="#" glyph-name="numbersign" horiz-adv-x="711" d="M422 216H244L206 0H175L212 216H68V245H218L253 453H107V482H258L295 698H326L289 482H467L504 698H536L498 482H643V453H493L458 245H604V216H453L416 0H384L422 216ZM427 245L462 453H284L248
245H427Z" />
<glyph unicode="$" glyph-name="dollar" horiz-adv-x="559" d="M269 -82V0Q188 2 135 34T44 115L72 138Q107 92 153 64T269 32V346L245 350Q192 359 157 375T101 415T71 466T62 527Q62 611 119 653T269 698V780H298V698Q367 694 414 668T491 599L463 578Q436 617
396 639T297 666V374L319 370Q372 360 407 343T463 302T492 250T501 189Q501 100 447 53T298 0V-82H269ZM465 187Q465 226 453 252T421 295T372 322T312 338L297 341V32Q378 37 421 76T465 187ZM97 529Q97 493 109 468T141 427T190 400T250 383L269 379V666Q188
664 143 630T97 529Z" />
<glyph unicode="%" glyph-name="percent" horiz-adv-x="892" d="M186 0L670 698H706L222 0H186ZM218 323Q187 323 161 334T115 369T84 429T73 517Q73 567 84 603T114 663T160 698T218 710Q249 710 275 699T321 664T352 604T363 517Q363 466 352 430T322 370T276
335T218 323ZM218 348Q241 348 261 356T297 383T321 429T330 497V536Q330 575 321 603T297 650T262 676T218 685Q195 685 175 677T139 650T115 604T106 536V497Q106 458 115 430T139 383T174 357T218 348ZM674 -12Q643 -12 617 -1T571 34T540 94T529 182Q529 232
540 268T570 328T616 363T674 375Q705 375 731 364T777 329T808 269T819 182Q819 131 808 95T778 35T732 0T674 -12ZM674 13Q697 13 717 21T753 48T777 94T786 162V201Q786 240 777 268T753 315T718 341T674 350Q651 350 631 342T595 315T571 269T562 201V162Q562
123 571 95T595 48T630 22T674 13Z" />
<glyph unicode="&amp;" glyph-name="ampersand" horiz-adv-x="681" d="M495 108Q480 83 459 61T410 23T349 -2T275 -12Q228 -12 190 1T126 39T85 96T70 170Q70 211 83 241T118 296T170 338T233 373Q188 421 164 461T139 551Q139 586 151 615T185 665T240 698T311
710Q348 710 378 699T429 669T461 624T473 568Q473 532 459 504T421 452T362 408T285 367L490 161Q507 201 514 251T523 355H638V323H553Q550 270 541 224T513 137L647 0H601L495 108ZM310 680Q278 680 253 671T211 645T185 607T175 560V544Q175 504 201 467T264
388Q301 405 332 423T387 463T424 507T437 557V570Q437 596 427 616T399 651T359 672T310 680ZM108 161Q108 129 120 103T155 59T208 30T276 20Q346 20 395 48T474 129L254 352Q224 337 198 321T151 286T120 240T108 180V161Z" />
<glyph unicode="&apos;" glyph-name="quotesingle" horiz-adv-x="225" d="M96 483V740H129V483H96Z" />
<glyph unicode="(" glyph-name="parenleft" horiz-adv-x="333" d="M100 311Q100 387 115 454T156 579T215 682T283 760H320Q282 726 249 680T190 579T149 461T134 334V288Q134 223 149 161T189 43T248 -58T320 -138H283Q248 -106 215 -61T157 42T116 167T100 311Z" />
<glyph unicode=")" glyph-name="parenright" horiz-adv-x="333" d="M233 311Q233 235 218 168T177 43T118 -60T50 -138H13Q51 -104 84 -58T143 43T184 161T199 288V334Q199 399 184 461T144 579T85 680T13 760H50Q85 728 118 683T176 580T217 455T233 311Z" />
<glyph unicode="*" glyph-name="asterisk" horiz-adv-x="383" d="M101 425L76 443L170 568L22 612L31 643L178 592L176 747H206L204 592L352 643L361 612L212 568L307 443L282 425L191 552L101 425Z" />
<glyph unicode="+" glyph-name="plus" horiz-adv-x="600" d="M283 62V290H63V321H283V549H317V321H537V290H317V62H283Z" />
<glyph unicode="," glyph-name="comma" horiz-adv-x="248" d="M124 68Q142 68 150 59T159 34V22Q159 -20 136 -66T78 -144H48Q84 -108 100 -72T122 -6Q104 -5 97 4T89 24V34Q89 49 97 58T124 68Z" />
<glyph unicode="-" glyph-name="hyphen" horiz-adv-x="396" d="M80 287V323H316V287H80Z" />
<glyph unicode="." glyph-name="period" horiz-adv-x="248" d="M124 -7Q107 -7 98 2T89 26V35Q89 50 98 59T124 68Q141 68 150 59T159 35V26Q159 11 150 2T124 -7Z" />
<glyph unicode="/" glyph-name="slash" horiz-adv-x="330" d="M12 -151L256 740H288L44 -151H12Z" />
<glyph unicode="0" glyph-name="zero" horiz-adv-x="600" d="M300 -12Q187 -12 128 75T68 349Q68 536 127 623T300 710Q413 710 472 623T532 349Q532 162 473 75T300 -12ZM300 21Q396 21 444 95T492 311V387Q492 529 444 603T300 677Q204 677 156 603T108 387V311Q108
169 156 95T300 21Z" />
<glyph unicode="1" glyph-name="one" horiz-adv-x="600" d="M92 0V33H305V671H301L95 494L73 519L282 698H342V33H545V0H92Z" />
<glyph unicode="2" glyph-name="two" horiz-adv-x="600" d="M524 0H84V37L343 294Q394 344 423 395T452 500V526Q452 559 442 586T412 634T362 665T293 677Q218 677 177 640T116 543L83 553Q92 586 109 615T153 665T214 698T294 710Q390 710 440 658T491 514Q491
443 459 386T366 270L125 33H524V0Z" />
<glyph unicode="3" glyph-name="three" horiz-adv-x="600" d="M275 382Q312 382 342 392T395 421T428 465T440 521V541Q440 604 397 640T285 677Q219 677 180 651T118 581L90 598Q112 645 160 677T285 710Q328 710 364 698T425 664T465 609T479 536Q479 463 440
422T340 369V365Q408 356 451 311T494 188Q494 142 479 105T436 42T368 2T279 -12Q202 -12 150 16T63 98L92 118Q123 69 167 45T279 21Q359 21 406 63T454 175V198Q454 267 408 308T278 350H186V382H275Z" />
<glyph unicode="4" glyph-name="four" horiz-adv-x="600" d="M403 0V155H45V188L389 698H437V186H551V155H437V0H403ZM80 186H403V661H401L80 186Z" />
<glyph unicode="5" glyph-name="five" horiz-adv-x="600" d="M485 665H166L143 347H147Q176 385 214 401T308 418Q403 418 457 363T511 207Q511 157 496 117T453 48T386 4T297 -12Q220 -12 168 16T82 98L111 118Q142 69 186 45T297 21Q381 21 426 68T472 193V216Q472
293 429 339T302 386Q242 386 208 369T145 318L110 323L136 698H485V665Z" />
<glyph unicode="6" glyph-name="six" horiz-adv-x="600" d="M300 -12Q244 -12 203 6T135 57T95 135T82 233Q82 316 103 386T162 515T247 618T350 698H400Q340 659 294 618T213 531T157 432T123 317L126 316Q152 367 197 394T306 421Q354 421 392 407T458 364T501
297T516 208Q516 158 501 118T458 49T389 4T300 -12ZM299 21Q341 21 374 33T430 69T465 123T477 192V218Q477 255 465 286T430 340T374 376T299 389Q257 389 224 376T168 341T133 287T121 218V194Q121 156 133 125T169 70T225 34T299 21Z" />
<glyph unicode="7" glyph-name="seven" horiz-adv-x="600" d="M184 0L478 666H110V508H75V698H516V665L224 0H184Z" />
<glyph unicode="8" glyph-name="eight" horiz-adv-x="600" d="M300 -12Q246 -12 203 2T130 41T85 103T69 182Q69 256 109 303T220 364V369Q160 383 126 426T92 535Q92 616 147 663T300 710Q397 710 452 663T508 535Q508 469 474 426T380 369V364Q450 350 490 303T531
182Q531 139 516 103T470 42T397 2T300 -12ZM300 21Q389 21 440 62T492 173V198Q492 267 441 308T300 350Q211 350 160 309T108 198V173Q108 104 159 63T300 21ZM300 382Q378 382 423 419T469 519V541Q469 604 424 640T300 677Q222 677 177 641T131 541V519Q131
456 176 419T300 382Z" />
<glyph unicode="9" glyph-name="nine" horiz-adv-x="600" d="M520 465Q520 382 499 312T441 183T356 80T253 0H203Q262 39 308 80T389 167T445 266T480 381L476 382Q450 331 405 304T297 277Q249 277 211 291T144 334T101 401T86 490Q86 539 101 580T144 649T212
694T302 710Q358 710 399 692T467 641T507 563T520 465ZM303 309Q345 309 378 322T434 357T469 411T481 480V504Q481 542 469 573T433 628T377 664T303 677Q261 677 228 665T172 629T137 575T125 506V480Q125 443 137 412T172 358T228 322T303 309Z" />
<glyph unicode=":" glyph-name="colon" horiz-adv-x="268" d="M134 -7Q117 -7 108 2T99 26V35Q99 50 108 59T134 68Q151 68 160 59T169 35V26Q169 11 160 2T134 -7ZM134 440Q117 440 108 449T99 473V482Q99 497 108 506T134 515Q151 515 160 506T169 482V473Q169
458 160 449T134 440Z" />
<glyph unicode=";" glyph-name="semicolon" horiz-adv-x="268" d="M134 68Q152 68 160 59T169 34V22Q169 -20 146 -66T88 -144H58Q94 -108 110 -72T132 -6Q114 -5 107 4T99 24V34Q99 49 107 58T134 68ZM134 440Q117 440 108 449T99 473V482Q99 497 108 506T134
515Q151 515 160 506T169 482V473Q169 458 160 449T134 440Z" />
<glyph unicode="&lt;" glyph-name="less" horiz-adv-x="600" d="M86 282V315L514 571V533L122 300V297L514 64V26L86 282Z" />
<glyph unicode="=" glyph-name="equal" horiz-adv-x="600" d="M63 382V413H537V382H63ZM63 198V229H537V198H63Z" />
<glyph unicode="&gt;" glyph-name="greater" horiz-adv-x="600" d="M86 64L478 297V300L86 533V571L514 315V282L86 26V64Z" />
<glyph unicode="?" glyph-name="question" horiz-adv-x="462" d="M194 184V354Q287 356 338 400T389 515V538Q389 601 349 639T237 678Q166 678 125 643T67 546L35 556Q55 626 104 668T238 710Q326 710 376 661T427 529Q427 439 374 388T230 327V184H194ZM212
-7Q195 -7 186 2T177 26V35Q177 68 212 68Q247 68 247 35V26Q247 11 238 2T212 -7Z" />
<glyph unicode="@" glyph-name="at" horiz-adv-x="883" d="M677 -121H442Q362 -121 294 -93T176 -11T98 120T69 297Q69 392 97 468T175 598T295 681T445 710Q519 710 586 686T703 614T784 495T814 328Q814 274 806 227T779 145T733 90T664 69Q623 69 599 91T569
150H566Q550 118 518 94T433 69Q354 69 307 123T260 287Q260 399 307 453T433 508Q486 508 517 485T563 433H566V497H598V171Q598 136 616 117T667 97Q721 97 751 152T782 306V353Q782 427 756 488T685 592T579 658T445 682Q371 682 308 655T199 581T127 468T101
325V271Q101 190 126 123T197 8T305 -66T442 -93H677V-121ZM436 98Q463 98 487 106T528 130T556 168T566 217V360Q566 387 556 408T529 446T487 470T436 479Q367 479 332 434T297 311V263Q297 187 332 143T436 98Z" />
<glyph unicode="A" glyph-name="A" horiz-adv-x="610" d="M541 0L460 227H149L68 0H30L281 698H329L580 0H541ZM306 662H302L159 259H450L306 662Z" />
<glyph unicode="B" glyph-name="B" horiz-adv-x="624" d="M104 698H365Q443 698 486 654T529 526Q529 457 501 420T428 370V367Q487 357 523 314T559 192Q559 105 514 53T384 0H104V698ZM141 33H378Q414 33 440 44T485 74T511 118T520 171V211Q520 239 512 264T485
309T441 339T378 350H141V33ZM141 382H362Q394 382 418 392T458 418T482 457T490 504V544Q490 569 482 591T458 629T418 655T362 665H141V382Z" />
<glyph unicode="C" glyph-name="C" horiz-adv-x="613" d="M331 -12Q205 -12 136 78T67 348Q67 528 136 619T331 710Q411 710 467 671T553 565L522 548Q496 608 448 642T331 677Q226 677 167 601T107 376V320Q107 171 166 96T331 21Q404 21 453 57T528 158L558
142Q529 72 472 30T331 -12Z" />
<glyph unicode="D" glyph-name="D" horiz-adv-x="661" d="M104 698H316Q454 698 524 611T594 349Q594 175 524 88T316 0H104V698ZM316 33Q376 33 420 52T495 108T539 197T554 313V385Q554 449 540 501T495 589T421 645T316 665H141V33H316Z" />
<glyph unicode="E" glyph-name="E" horiz-adv-x="566" d="M104 0V698H496V665H141V371H482V338H141V33H496V0H104Z" />
<glyph unicode="F" glyph-name="F" horiz-adv-x="541" d="M104 0V698H488V665H141V371H470V338H141V0H104Z" />
<glyph unicode="G" glyph-name="G" horiz-adv-x="673" d="M560 111H557Q532 54 479 21T342 -12Q211 -12 139 78T67 349Q67 529 139 619T344 710Q429 710 489 671T578 565L548 548Q522 609 469 643T344 677Q234 677 171 601T107 379V320Q107 174 170 98T345 21Q388
21 427 32T495 67T541 126T559 208V305H388V338H595V0H560V111Z" />
<glyph unicode="H" glyph-name="H" horiz-adv-x="695" d="M554 338H141V0H104V698H141V371H554V698H591V0H554V338Z" />
<glyph unicode="I" glyph-name="I" horiz-adv-x="379" d="M66 0V31H171V667H66V698H313V667H208V31H313V0H66Z" />
<glyph unicode="J" glyph-name="J" horiz-adv-x="475" d="M378 698V183Q378 88 330 38T199 -12Q166 -12 137 -3T85 25T46 67T23 121L56 130Q70 83 106 52T200 21Q270 21 305 63T341 186V665H96V698H378Z" />
<glyph unicode="K" glyph-name="K" horiz-adv-x="587" d="M268 377L141 238V0H104V698H141V284H143L266 421L514 698H560L293 402L566 0H522L268 377Z" />
<glyph unicode="L" glyph-name="L" horiz-adv-x="481" d="M104 0V698H141V33H460V0H104Z" />
<glyph unicode="M" glyph-name="M" horiz-adv-x="800" d="M660 653H656L400 220L144 652H140V0H104V698H156L399 288H403L645 698H696V0H660V653Z" />
<glyph unicode="N" glyph-name="N" horiz-adv-x="696" d="M143 650H140V0H104V698H153L553 48H556V698H592V0H542L143 650Z" />
<glyph unicode="O" glyph-name="O" horiz-adv-x="686" d="M343 -12Q212 -12 140 78T67 349Q67 529 139 619T343 710Q474 710 546 620T619 349Q619 169 547 79T343 -12ZM343 21Q452 21 515 97T579 319V379Q579 525 516 601T343 677Q234 677 171 601T107 379V319Q107
173 170 97T343 21Z" />
<glyph unicode="P" glyph-name="P" horiz-adv-x="597" d="M104 0V698H375Q463 698 508 647T554 507Q554 419 509 368T375 316H141V0H104ZM141 349H375Q410 349 436 360T479 389T505 433T514 485V529Q514 556 506 581T480 624T436 654T375 665H141V349Z" />
<glyph unicode="Q" glyph-name="Q" horiz-adv-x="686" d="M468 -150H370Q328 -150 328 -109V-12Q203 -7 135 83T67 349Q67 529 139 619T343 710Q474 710 546 620T619 349Q619 176 552 86T364 -11V-118H468V-150ZM343 21Q452 21 515 97T579 319V379Q579 525 516
601T343 677Q234 677 171 601T107 379V319Q107 173 170 97T343 21Z" />
<glyph unicode="R" glyph-name="R" horiz-adv-x="632" d="M141 0H104V698H375Q463 698 508 647T554 508Q554 423 512 373T386 319L571 0H529L347 317H141V0ZM375 349Q410 349 436 360T479 389T505 433T514 485V529Q514 556 506 581T480 624T436 654T375 665H141V349H375Z" />
<glyph unicode="S" glyph-name="S" horiz-adv-x="555" d="M279 -12Q193 -12 137 20T42 104L70 126Q107 78 155 50T280 21Q368 21 415 61T463 180Q463 219 451 246T418 290T369 318T309 335L242 348Q191 358 156 375T100 416T69 468T59 530Q59 575 74 609T118 665T187
699T276 710Q354 710 405 683T488 610L460 590Q430 632 385 654T274 677Q190 677 143 641T96 531Q96 494 108 469T140 426T189 399T250 382L317 369Q370 358 405 340T462 298T491 245T500 183Q500 88 441 38T279 -12Z" />
<glyph unicode="T" glyph-name="T" horiz-adv-x="563" d="M300 665V0H263V665H18V698H545V665H300Z" />
<glyph unicode="U" glyph-name="U" horiz-adv-x="658" d="M134 698V268Q134 202 143 155T176 78T236 35T329 21Q384 21 421 34T482 78T514 155T524 268V698H561V274Q561 197 549 143T510 54T438 4T328 -12Q263 -12 219 3T148 53T109 142T97 274V698H134Z" />
<glyph unicode="V" glyph-name="V" horiz-adv-x="580" d="M265 0L28 698H68L288 39H292L513 698H552L313 0H265Z" />
<glyph unicode="W" glyph-name="W" horiz-adv-x="877" d="M210 0L28 698H67L233 48H236L414 698H462L640 48H643L811 698H849L665 0H619L439 657H436L255 0H210Z" />
<glyph unicode="X" glyph-name="X" horiz-adv-x="571" d="M544 0H500L287 325H285L70 0H27L263 354L35 698H79L285 386H287L493 698H536L309 357L544 0Z" />
<glyph unicode="Y" glyph-name="Y" horiz-adv-x="557" d="M260 0V290L19 698H61L277 330H280L497 698H538L297 290V0H260Z" />
<glyph unicode="Z" glyph-name="Z" horiz-adv-x="561" d="M531 0H38V35L472 665H61V698H512V663L78 33H531V0Z" />
<glyph unicode="[" glyph-name="bracketleft" horiz-adv-x="305" d="M104 -138V760H238V731H136V-109H238V-138H104Z" />
<glyph unicode="\" glyph-name="backslash" horiz-adv-x="330" d="M280 -151L40 740H72L312 -151H280Z" />
<glyph unicode="]" glyph-name="bracketright" horiz-adv-x="305" d="M201 760V-138H67V-109H169V731H67V760H201Z" />
<glyph unicode="^" glyph-name="asciicircum" horiz-adv-x="600" d="M508 316L301 664H299L92 316L64 331L281 698H319L536 331L508 316Z" />
<glyph unicode="_" glyph-name="underscore" horiz-adv-x="568" d="M30 -147V-117H538V-147H30Z" />
<glyph unicode="`" glyph-name="grave" horiz-adv-x="600" d="M198 740L230 758L335 600L311 587L198 740Z" />
<glyph unicode="a" glyph-name="a" horiz-adv-x="522" d="M431 0Q390 0 388 42V79H384Q366 40 327 14T222 -12Q143 -12 100 26T57 133Q57 166 67 193T100 239T161 269T254 280H387V348Q387 420 352 454T248 489Q141 489 100 399L75 416Q96 463 137 491T249 520Q334
520 378 477T422 352V31H500V0H431ZM225 19Q258 19 287 27T339 52T374 92T387 148V252H254Q170 252 132 224T94 148V120Q94 70 130 45T225 19Z" />
<glyph unicode="b" glyph-name="b" horiz-adv-x="567" d="M100 740H135V429H138Q155 466 195 493T299 520Q399 520 454 453T510 254Q510 123 455 56T299 -12Q235 -12 195 15T138 79H135V0H100V740ZM294 20Q379 20 425 75T472 225V283Q472 378 426 433T294 489Q262
489 233 480T183 454T148 414T135 362V148Q135 119 148 96T182 55T233 29T294 20Z" />
<glyph unicode="c" glyph-name="c" horiz-adv-x="491" d="M272 -12Q170 -12 114 56T57 254Q57 385 113 452T272 520Q336 520 378 492T443 415L414 400Q392 443 359 466T272 489Q186 489 141 433T95 283V225Q95 131 140 75T272 19Q329 19 365 42T425 108L451 90Q426
44 383 16T272 -12Z" />
<glyph unicode="d" glyph-name="d" horiz-adv-x="567" d="M432 79H429Q412 43 372 16T268 -12Q168 -12 113 55T57 254Q57 385 112 452T268 520Q332 520 372 493T429 429H432V740H467V0H432V79ZM273 20Q305 20 334 29T384 55T419 95T432 148V362Q432 390 419 413T385
453T334 479T273 489Q188 489 142 434T95 283V225Q95 130 141 75T273 20Z" />
<glyph unicode="e" glyph-name="e" horiz-adv-x="537" d="M275 -12Q174 -12 116 56T57 254Q57 383 114 451T271 520Q318 520 356 502T422 451T465 372T480 268V252H94V225Q94 178 106 140T141 75T198 34T275 19Q396 19 442 135L469 120Q446 60 397 24T275 -12ZM271
489Q229 489 197 475T141 433T106 368T94 284V280H442V286Q442 332 430 369T395 433T341 474T271 489Z" />
<glyph unicode="f" glyph-name="f" horiz-adv-x="294" d="M121 477H30V508H121V689Q121 740 170 740H270V709H156V508H270V477H156V0H121V477Z" />
<glyph unicode="g" glyph-name="g" horiz-adv-x="528" d="M506 -63Q506 -140 444 -176T264 -212Q150 -212 99 -177T48 -83Q48 -38 73 -10T143 33V37Q92 54 92 106Q92 141 117 162T178 193V196Q134 216 110 254T85 349Q85 388 97 419T133 473T189 508T263 520Q329
520 371 490V530Q371 567 406 567H503V536H395V472Q418 449 430 418T443 349Q443 311 430 280T394 226T337 191T264 178Q249 178 236 180T209 185Q168 174 146 156T124 111Q124 90 142 75T209 59H338Q427 59 466 27T506 -63ZM471 -65Q471 -22 442 2T336 26H177Q135
15 109 -10T83 -79Q83 -124 123 -152T236 -181H291Q331 -181 364 -174T421 -153T458 -117T471 -65ZM264 209Q330 209 367 243T404 331V367Q404 421 367 455T264 489Q197 489 161 455T124 367V331Q124 277 161 243T264 209Z" />
<glyph unicode="h" glyph-name="h" horiz-adv-x="559" d="M100 740H135V430H138Q153 467 190 493T294 520Q378 520 422 471T467 326V0H432V320Q432 408 395 448T286 489Q257 489 230 481T181 457T148 417T135 361V0H100V740Z" />
<glyph unicode="i" glyph-name="i" horiz-adv-x="235" d="M118 665Q102 665 95 672T88 691V700Q88 711 94 718T117 726Q133 726 140 719T147 700V691Q147 680 141 673T118 665ZM100 508H135V0H100V508Z" />
<glyph unicode="j" glyph-name="j" horiz-adv-x="235" d="M100 508H135V-149Q135 -200 87 -200H15V-169H100V508ZM118 665Q102 665 95 672T88 691V700Q88 711 94 718T117 726Q133 726 140 719T147 700V691Q147 680 141 673T118 665Z" />
<glyph unicode="k" glyph-name="k" horiz-adv-x="499" d="M100 740H135V232H138L218 313L411 508H455L246 297L480 0H437L221 274L135 189V0H100V740Z" />
<glyph unicode="l" glyph-name="l" horiz-adv-x="255" d="M143 0Q100 0 100 42V740H135V31H218V0H143Z" />
<glyph unicode="m" glyph-name="m" horiz-adv-x="878" d="M100 0V508H135V430H138Q145 448 157 464T188 492T230 512T288 520Q348 520 389 493T447 410H450Q464 458 504 489T614 520Q698 520 742 471T786 326V0H751V321Q751 407 715 448T607 489Q578 489 552 481T505
457T473 417T461 360V0H426V321Q426 408 389 448T282 489Q253 489 227 481T180 457T147 417T135 361V0H100Z" />
<glyph unicode="n" glyph-name="n" horiz-adv-x="559" d="M100 0V508H135V430H138Q153 467 190 493T294 520Q378 520 422 471T467 326V0H432V320Q432 408 395 448T286 489Q257 489 230 481T181 457T148 417T135 361V0H100Z" />
<glyph unicode="o" glyph-name="o" horiz-adv-x="544" d="M272 -12Q172 -12 115 56T57 254Q57 385 114 452T272 520Q372 520 429 453T487 254Q487 124 430 56T272 -12ZM272 19Q357 19 403 74T449 227V281Q449 379 403 434T272 489Q187 489 141 434T95 281V227Q95
130 141 75T272 19Z" />
<glyph unicode="p" glyph-name="p" horiz-adv-x="567" d="M100 508H135V429H138Q155 466 195 493T299 520Q399 520 454 453T510 254Q510 123 455 56T299 -12Q235 -12 195 15T138 79H135V-200H100V508ZM294 20Q379 20 425 75T472 225V283Q472 378 426 433T294 489Q262
489 233 480T183 454T148 414T135 362V148Q135 119 148 96T182 55T233 29T294 20Z" />
<glyph unicode="q" glyph-name="q" horiz-adv-x="567" d="M432 79H429Q412 43 372 16T268 -12Q168 -12 113 55T57 254Q57 385 112 452T268 520Q332 520 372 493T429 429H432V508H467V-200H432V79ZM273 20Q305 20 334 29T384 55T419 95T432 148V362Q432 390 419
413T385 453T334 479T273 489Q188 489 142 434T95 283V225Q95 130 141 75T273 20Z" />
<glyph unicode="r" glyph-name="r" horiz-adv-x="347" d="M100 0V508H135V419H139Q155 455 191 481T295 508H333V475H289Q258 475 230 467T181 443T148 404T135 349V0H100Z" />
<glyph unicode="s" glyph-name="s" horiz-adv-x="468" d="M237 -12Q174 -12 128 11T46 83L73 103Q107 58 145 39T238 19Q306 19 341 47T376 128Q376 179 347 204T256 239L213 246Q179 251 152 261T105 287T75 328T64 386Q64 419 76 444T111 486T164 511T230 520Q294
520 334 498T400 445L375 422Q364 435 351 447T320 468T281 483T229 489Q169 489 134 463T98 387Q98 336 128 313T219 279L262 272Q333 261 371 229T410 131Q410 63 364 26T237 -12Z" />
<glyph unicode="t" glyph-name="t" horiz-adv-x="320" d="M165 0Q122 0 122 42V477H30V508H96Q113 508 118 515T124 539V652H157V508H276V477H157V31H268V0H165Z" />
<glyph unicode="u" glyph-name="u" horiz-adv-x="559" d="M424 78H420Q413 61 401 45T370 16T325 -4T265 -12Q181 -12 136 37T91 182V508H126V188Q126 100 164 60T273 19Q302 19 329 27T378 50T411 90T424 148V508H459V0H424V78Z" />
<glyph unicode="v" glyph-name="v" horiz-adv-x="461" d="M23 508H60L230 38H233L403 508H438L251 0H210L23 508Z" />
<glyph unicode="w" glyph-name="w" horiz-adv-x="735" d="M34 508H70L205 36H208L351 508H385L529 36H532L667 508H701L551 0H508L369 456H366L227 0H184L34 508Z" />
<glyph unicode="x" glyph-name="x" horiz-adv-x="479" d="M31 0L220 256L37 508H78L239 285H241L403 508H443L260 258L448 0H407L241 229H239L71 0H31Z" />
<glyph unicode="y" glyph-name="y" horiz-adv-x="462" d="M403 508H438L190 -167Q182 -185 171 -192T138 -200H64V-169H154L214 -10L23 508H60L230 38H233L403 508Z" />
<glyph unicode="z" glyph-name="z" horiz-adv-x="428" d="M28 0V32L355 477H38V508H395V478L67 31H404V0H28Z" />
<glyph unicode="{" glyph-name="braceleft" horiz-adv-x="322" d="M159 -138Q121 -138 121 -99V197Q121 242 95 262T24 283V339Q69 339 95 359T121 425V721Q121 760 159 760H256V731H153V427Q153 380 127 351T55 319V303Q100 301 126 272T153 195V-109H256V-138H159Z" />
<glyph unicode="|" glyph-name="bar" horiz-adv-x="255" d="M112 -138V760H143V-138H112Z" />
<glyph unicode="}" glyph-name="braceright" horiz-adv-x="322" d="M163 760Q201 760 201 721V425Q201 380 227 360T298 339V283Q253 283 227 263T201 197V-99Q201 -138 163 -138H66V-109H169V195Q169 242 195 271T267 303V319Q222 321 196 350T169 427V731H66V760H163Z" />
<glyph unicode="~" glyph-name="asciitilde" horiz-adv-x="600" d="M423 252Q408 252 394 254T364 261T332 273T293 290Q273 299 258 305T229 316T202 323T175 326Q147 326 126 317T82 286L64 308Q88 333 114 345T177 357Q192 357 206 355T236 348T268 336T307
319Q327 310 342 303T371 292T398 285T425 283Q453 283 474 292T518 323L536 301Q512 276 486 264T423 252Z" />
<glyph unicode="&#xa0;" glyph-name="uni00A0" horiz-adv-x="236" />
<glyph unicode="&#xa1;" glyph-name="exclamdown" horiz-adv-x="260" d="M139 330L148 74V-190H111V74L120 330H139ZM130 515Q165 515 165 482V473Q165 440 130 440Q95 440 95 473V482Q95 515 130 515Z" />
<glyph unicode="&#xa2;" glyph-name="cent" horiz-adv-x="492" d="M249 -114V-11Q157 -3 107 64T57 254Q57 377 107 444T249 519V622H281V520Q341 518 380 490T443 416L414 401Q392 443 361 465T280 489V20Q334 22 368 44T426 108L452 90Q428 45 386 18T281 -12V-114H249ZM95
225Q95 137 134 83T249 21V487Q174 481 135 426T95 283V225Z" />
<glyph unicode="&#xa3;" glyph-name="sterling" horiz-adv-x="583" d="M83 0V43Q125 72 149 118T173 224Q173 246 170 266T161 306H68V337H152Q138 378 124 418T109 507Q109 554 124 591T168 655T235 696T322 710Q455 710 525 593L495 574Q435 677 322 677Q243
677 195 633T147 505Q147 457 161 418T189 337H407V306H198Q203 288 206 268T209 227Q209 167 186 118T120 36V33H516V0H83Z" />
<glyph unicode="&#xa4;" glyph-name="currency" horiz-adv-x="592" d="M296 127Q202 127 152 183L44 74L21 97L132 208Q98 262 98 349Q98 436 132 490L21 601L44 624L152 515Q202 571 296 571Q390 571 440 515L548 624L571 601L460 490Q494 436 494 349Q494 262
460 208L571 97L548 74L440 183Q390 127 296 127ZM296 157Q372 157 414 201T456 324V374Q456 453 414 497T296 541Q220 541 178 497T136 374V324Q136 245 178 201T296 157Z" />
<glyph unicode="&#xa5;" glyph-name="yen" horiz-adv-x="586" d="M311 163V0H275V163H82V193H275V321H82V351H256L45 698H86L292 356H296L501 698H541L330 351H504V321H311V193H504V163H311Z" />
<glyph unicode="&#xa6;" glyph-name="brokenbar" horiz-adv-x="255" d="M112 402V760H143V402H112ZM112 -138V220H143V-138H112Z" />
<glyph unicode="&#xa7;" glyph-name="section" horiz-adv-x="570" d="M451 260Q451 315 419 345T323 395L258 415Q247 418 237 422T215 431Q170 410 144 378T118 296Q118 240 150 211T246 161L311 141Q322 137 332 134T354 125Q399 146 425 178T451 260ZM450 -9Q450
-45 436 -72T398 -118T342 -145T271 -154Q217 -154 179 -139T114 -98L135 -74Q158 -95 191 -109T272 -123Q339 -123 377 -94T415 -9Q415 17 406 36T380 69T342 93T296 111L230 132Q159 155 122 190T84 290Q84 345 113 381T193 438V442Q158 464 139 494T119 565Q119
601 133 628T171 674T227 701T298 710Q352 710 390 695T455 654L434 629Q411 651 378 665T297 679Q230 679 192 650T154 565Q154 539 163 520T189 486T227 462T273 445L339 423Q410 401 448 366T486 266Q486 211 457 174T376 117V114Q411 92 430 62T450 -9Z" />
<glyph unicode="&#xa8;" glyph-name="dieresis" horiz-adv-x="600" d="M209 636Q192 636 186 644T179 663V671Q179 682 185 690T209 698Q225 698 231 690T238 671V663Q238 652 232 644T209 636ZM391 636Q375 636 369 644T362 663V671Q362 682 368 690T391 698Q408
698 414 690T421 671V663Q421 652 415 644T391 636Z" />
<glyph unicode="&#xa9;" glyph-name="copyright" horiz-adv-x="724" d="M362 -12Q291 -12 232 13T130 86T62 199T38 349Q38 431 62 498T129 612T232 684T362 710Q433 710 492 685T595 612T662 498T686 349Q686 266 662 200T595 86T493 14T362 -12ZM362 16Q427
16 480 39T572 104T632 202T653 325V373Q653 439 632 495T573 593T481 658T362 682Q297 682 243 659T151 594T92 496T71 373V325Q71 259 92 203T151 105T243 40T362 16ZM362 150Q291 150 250 200T209 347Q209 442 250 492T363 543Q413 543 444 520T489 461L463
449Q450 480 426 497T363 515Q307 515 275 476T242 362V331Q242 254 274 216T362 178Q401 178 428 196T469 246L493 232Q478 197 445 174T362 150Z" />
<glyph unicode="&#xaa;" glyph-name="ordfeminine" horiz-adv-x="364" d="M292 362Q263 362 263 389V411H261Q250 390 224 373T149 356Q95 356 68 381T40 447Q40 492 70 517T172 543H262V592Q262 637 238 658T169 679Q136 679 111 665T72 622L50 636Q64 666 93
685T170 704Q227 704 259 676T292 595V388H336V362H292ZM152 381Q174 381 194 386T229 401T253 426T262 461V519H171Q117 519 94 502T71 455V443Q71 413 93 397T152 381Z" />
<glyph unicode="&#xab;" glyph-name="guillemotleft" horiz-adv-x="481" d="M231 100L34 275V308L231 483L244 459L71 292L244 124L231 100ZM417 100L220 275V308L417 483L430 459L257 292L430 124L417 100Z" />
<glyph unicode="&#xac;" glyph-name="logicalnot" horiz-adv-x="600" d="M492 98V290H63V321H525V98H492Z" />
<glyph unicode="&#xad;" glyph-name="uni00AD" horiz-adv-x="396" d="M80 287V323H316V287H80Z" />
<glyph unicode="&#xae;" glyph-name="registered" horiz-adv-x="468" d="M234 298Q192 298 156 313T93 355T51 421T36 504Q36 549 51 587T92 652T155 695T234 710Q277 710 313 695T375 653T417 587T432 504Q432 459 417 421T376 356T313 313T234 298ZM234 320Q271
320 303 333T358 370T394 425T407 494V514Q407 551 394 583T358 638T303 674T234 688Q196 688 165 675T110 638T74 583T61 514V494Q61 457 74 425T110 370T164 334T234 320ZM189 397H167V608H250Q279 608 296 593T313 546Q313 520 300 505T267 487L320 397H295L245
485H189V397ZM249 504Q289 504 289 541V552Q289 589 249 589H189V504H249Z" />
<glyph unicode="&#xaf;" glyph-name="overscore" horiz-adv-x="600" d="M168 683H432V653H168V683Z" />
<glyph unicode="&#xb0;" glyph-name="degree" horiz-adv-x="466" d="M233 372Q198 372 168 385T117 420T83 474T70 541Q70 577 82 608T116 661T168 697T233 710Q268 710 298 697T349 662T383 608T396 541Q396 505 384 474T350 421T298 385T233 372ZM233 402Q263
402 287 413T328 442T355 486T364 541Q364 570 355 595T329 639T287 669T233 680Q203 680 179 669T138 640T111 596T102 541Q102 512 111 487T137 443T179 413T233 402Z" />
<glyph unicode="&#xb1;" glyph-name="plusminus" horiz-adv-x="600" d="M283 124V349H63V380H283V606H317V380H537V349H317V124H283ZM63 0V31H537V0H63Z" />
<glyph unicode="&#xb2;" glyph-name="twosuperior" horiz-adv-x="345" d="M303 329H43V358L180 470Q258 536 258 591V600Q258 635 237 657T171 679Q126 679 102 659T65 605L39 614Q51 651 83 677T172 704Q230 704 260 674T290 598Q290 559 266 525T196 452L74
354H303V329Z" />
<glyph unicode="&#xb3;" glyph-name="threesuperior" horiz-adv-x="347" d="M158 533Q209 533 230 552T252 606V611Q252 643 231 661T167 679Q130 679 109 667T71 633L50 649Q66 673 94 688T168 704Q222 704 253 679T284 609Q284 573 264 552T212 523V520Q250
514 270 492T291 431Q291 381 257 352T162 323Q114 323 85 340T38 381L60 398Q77 375 99 362T162 348Q210 348 234 369T259 429V435Q259 470 238 489T165 508H113V533H158Z" />
<glyph unicode="&#xb4;" glyph-name="acute" horiz-adv-x="600" d="M288 587L264 600L369 758L401 740L288 587Z" />
<glyph unicode="&#xb5;" glyph-name="mu" horiz-adv-x="568" d="M100 -200V508H135V188Q135 101 173 60T281 19Q311 19 338 27T386 51T419 91T432 148V508H467V0H432V78H429Q422 61 410 45T379 16T334 -4T275 -12Q169 -12 133 70H130L135 -44V-200H100Z" />
<glyph unicode="&#xb6;" glyph-name="paragraph" horiz-adv-x="605" d="M249 323Q208 323 172 336T109 373T67 432T51 510Q51 553 66 588T109 647T172 685T249 698H511V668H443V-149H410V668H282V-149H249V323Z" />
<glyph unicode="&#xb7;" glyph-name="middot" horiz-adv-x="306" d="M153 268Q136 268 127 277T118 301V310Q118 325 127 334T153 343Q170 343 179 334T188 310V301Q188 286 179 277T153 268Z" />
<glyph unicode="&#xb8;" glyph-name="cedilla" horiz-adv-x="600" d="M310 -203Q278 -203 256 -193T224 -169L243 -149Q254 -162 270 -169T310 -177Q335 -177 351 -165T367 -130Q367 -112 354 -100T304 -85L269 -83L290 7H315L297 -70L299 -72Q307 -70 315 -70T331
-69Q360 -69 379 -85T399 -129Q399 -161 375 -182T310 -203Z" />
<glyph unicode="&#xb9;" glyph-name="onesuperior" horiz-adv-x="370" d="M59 329V354H183V674H179L62 573L45 592L166 698H213V354H326V329H59Z" />
<glyph unicode="&#xba;" glyph-name="ordmasculine" horiz-adv-x="374" d="M187 356Q119 356 83 402T46 530Q46 611 82 657T187 704Q255 704 291 658T328 530Q328 449 292 403T187 356ZM187 381Q214 381 234 391T268 419T289 460T296 510V550Q296 576 289 599T269
640T235 668T187 679Q160 679 140 669T106 641T85 600T78 550V510Q78 484 85 461T105 420T139 392T187 381Z" />
<glyph unicode="&#xbb;" glyph-name="guillemotright" horiz-adv-x="481" d="M51 124L224 292L51 459L64 483L261 308V275L64 100L51 124ZM237 124L410 292L237 459L250 483L447 308V275L250 100L237 124Z" />
<glyph unicode="&#xbc;" glyph-name="onequarter" horiz-adv-x="851" d="M59 329V354H183V674H179L62 573L45 592L166 698H213V354H326V329H59ZM211 0L667 698H700L243 0H211ZM732 0V85H525V112L720 369H761V109H825V85H761V0H732ZM732 341H729L553 109H732V341Z" />
<glyph unicode="&#xbd;" glyph-name="onehalf" horiz-adv-x="877" d="M59 329V354H183V674H179L62 573L45 592L166 698H213V354H326V329H59ZM211 0L667 698H700L243 0H211ZM835 0H575V29L712 141Q790 207 790 262V271Q790 306 769 328T703 350Q658 350 634 330T597
276L571 285Q583 322 615 348T704 375Q762 375 792 345T822 269Q822 230 798 196T728 123L606 25H835V0Z" />
<glyph unicode="&#xbe;" glyph-name="threequarters" horiz-adv-x="821" d="M158 533Q209 533 230 552T252 606V611Q252 643 231 661T167 679Q130 679 109 667T71 633L50 649Q66 673 94 688T168 704Q222 704 253 679T284 609Q284 573 264 552T212 523V520Q250
514 270 492T291 431Q291 381 257 352T162 323Q114 323 85 340T38 381L60 398Q77 375 99 362T162 348Q210 348 234 369T259 429V435Q259 470 238 489T165 508H113V533H158ZM181 0L637 698H670L213 0H181ZM702 0V85H495V112L690 369H731V109H795V85H731V0H702ZM702
341H699L523 109H702V341Z" />
<glyph unicode="&#xbf;" glyph-name="questiondown" horiz-adv-x="462" d="M225 -202Q137 -202 87 -153T36 -21Q36 69 89 120T233 181V324H269V154Q176 152 125 108T74 -7V-30Q74 -93 114 -131T226 -170Q297 -170 338 -135T396 -38L428 -48Q408 -118 359 -160T225
-202ZM251 440Q216 440 216 473V482Q216 497 225 506T251 515Q268 515 277 506T286 482V473Q286 440 251 440Z" />
<glyph unicode="&#xc0;" glyph-name="Agrave" horiz-adv-x="610" d="M541 0L460 227H149L68 0H30L281 698H329L580 0H541ZM306 662H302L159 259H450L306 662ZM202 918L234 935L339 777L315 764L202 918Z" />
<glyph unicode="&#xc1;" glyph-name="Aacute" horiz-adv-x="610" d="M541 0L460 227H149L68 0H30L281 698H329L580 0H541ZM306 662H302L159 259H450L306 662ZM292 764L268 777L373 935L405 918L292 764Z" />
<glyph unicode="&#xc2;" glyph-name="Acircumflex" horiz-adv-x="610" d="M541 0L460 227H149L68 0H30L281 698H329L580 0H541ZM306 662H302L159 259H450L306 662ZM325 926L449 790L428 775L304 899L180 775L159 790L283 926H325Z" />
<glyph unicode="&#xc3;" glyph-name="Atilde" horiz-adv-x="610" d="M541 0L460 227H149L68 0H30L281 698H329L580 0H541ZM306 662H302L159 259H450L306 662ZM375 802Q356 802 339 809T298 831Q275 845 260 850T231 856Q213 856 198 849T167 825L150 843Q167 863
187 874T233 886Q252 886 269 879T310 857Q333 843 348 838T377 832Q395 832 410 839T441 863L458 845Q441 825 421 814T375 802Z" />
<glyph unicode="&#xc4;" glyph-name="Adieresis" horiz-adv-x="610" d="M541 0L460 227H149L68 0H30L281 698H329L580 0H541ZM306 662H302L159 259H450L306 662ZM213 812Q196 812 190 820T183 839V847Q183 858 189 866T213 874Q229 874 235 866T242 847V839Q242
828 236 820T213 812ZM395 812Q379 812 373 820T366 839V847Q366 858 372 866T395 874Q412 874 418 866T425 847V839Q425 828 419 820T395 812Z" />
<glyph unicode="&#xc5;" glyph-name="Aring" horiz-adv-x="610" d="M541 0L460 227H149L68 0H30L281 698H329L580 0H541ZM306 662H302L159 259H450L306 662ZM304 764Q261 764 235 790T208 860Q208 903 234 930T304 957Q347 957 373 930T400 860Q400 817 374 791T304
764ZM304 789Q335 789 353 806T371 854V867Q371 896 353 914T304 932Q273 932 255 914T237 867V854Q237 824 255 807T304 789Z" />
<glyph unicode="&#xc6;" glyph-name="AE" horiz-adv-x="872" d="M410 227H164L41 0H2L379 698H802V665H447V371H788V338H447V33H802V0H410V227ZM399 665L180 259H410V665H399Z" />
<glyph unicode="&#xc7;" glyph-name="Ccedilla" horiz-adv-x="613" d="M331 677Q226 677 167 601T107 376V320Q107 171 166 96T331 21Q404 21 453 57T528 158L558 142Q531 75 477 34T345 -12L331 -70L333 -72Q341 -70 349 -70T366 -69Q395 -69 414 -85T433 -129Q433
-161 409 -182T344 -203Q312 -203 290 -193T259 -169L278 -149Q288 -162 304 -169T344 -177Q369 -177 385 -165T401 -130Q401 -112 388 -100T338 -85L303 -82L319 -12Q198 -8 133 82T67 348Q67 528 136 619T331 710Q411 710 467 671T553 565L522 548Q496 608 448
642T331 677Z" />
<glyph unicode="&#xc8;" glyph-name="Egrave" horiz-adv-x="566" d="M104 0V698H496V665H141V371H482V338H141V33H496V0H104ZM198 918L230 935L335 777L311 764L198 918Z" />
<glyph unicode="&#xc9;" glyph-name="Eacute" horiz-adv-x="566" d="M104 0V698H496V665H141V371H482V338H141V33H496V0H104ZM288 764L264 777L369 935L401 918L288 764Z" />
<glyph unicode="&#xca;" glyph-name="Ecircumflex" horiz-adv-x="566" d="M104 0V698H496V665H141V371H482V338H141V33H496V0H104ZM321 926L445 790L424 775L300 899L176 775L155 790L279 926H321Z" />
<glyph unicode="&#xcb;" glyph-name="Edieresis" horiz-adv-x="566" d="M104 0V698H496V665H141V371H482V338H141V33H496V0H104ZM209 812Q192 812 186 820T179 839V847Q179 858 185 866T209 874Q225 874 231 866T238 847V839Q238 828 232 820T209 812ZM391 812Q375
812 369 820T362 839V847Q362 858 368 866T391 874Q408 874 414 866T421 847V839Q421 828 415 820T391 812Z" />
<glyph unicode="&#xcc;" glyph-name="Igrave" horiz-adv-x="379" d="M66 0V31H171V667H66V698H313V667H208V31H313V0H66ZM344 918L376 935L481 777L457 764L344 918Z" />
<glyph unicode="&#xcd;" glyph-name="Iacute" horiz-adv-x="379" d="M66 0V31H171V667H66V698H313V667H208V31H313V0H66ZM434 764L410 777L515 935L547 918L434 764Z" />
<glyph unicode="&#xce;" glyph-name="Icircumflex" horiz-adv-x="379" d="M66 0V31H171V667H66V698H313V667H208V31H313V0H66ZM467 926L591 790L570 775L446 899L322 775L301 790L425 926H467Z" />
<glyph unicode="&#xcf;" glyph-name="Idieresis" horiz-adv-x="379" d="M66 0V31H171V667H66V698H313V667H208V31H313V0H66ZM355 812Q338 812 332 820T325 839V847Q325 858 331 866T355 874Q371 874 377 866T384 847V839Q384 828 378 820T355 812ZM537 812Q521
812 515 820T508 839V847Q508 858 514 866T537 874Q554 874 560 866T567 847V839Q567 828 561 820T537 812Z" />
<glyph unicode="&#xd0;" glyph-name="Eth" horiz-adv-x="664" d="M107 354H25V384H107V698H319Q457 698 527 611T597 349Q597 175 527 88T319 0H107V354ZM319 33Q379 33 423 52T498 108T542 197T557 313V385Q557 449 543 501T498 589T424 645T319 665H144V384H308V354H144V33H319Z"
/>
<glyph unicode="&#xd1;" glyph-name="Ntilde" horiz-adv-x="696" d="M143 650H140V0H104V698H153L553 48H556V698H592V0H542L143 650ZM419 802Q400 802 383 809T342 831Q319 845 304 850T275 856Q257 856 242 849T211 825L194 843Q211 863 231 874T277 886Q296
886 313 879T354 857Q377 843 392 838T421 832Q439 832 454 839T485 863L502 845Q485 825 465 814T419 802Z" />
<glyph unicode="&#xd2;" glyph-name="Ograve" horiz-adv-x="686" d="M343 -12Q212 -12 140 78T67 349Q67 529 139 619T343 710Q474 710 546 620T619 349Q619 169 547 79T343 -12ZM343 21Q452 21 515 97T579 319V379Q579 525 516 601T343 677Q234 677 171 601T107
379V319Q107 173 170 97T343 21ZM241 918L273 935L378 777L354 764L241 918Z" />
<glyph unicode="&#xd3;" glyph-name="Oacute" horiz-adv-x="686" d="M343 -12Q212 -12 140 78T67 349Q67 529 139 619T343 710Q474 710 546 620T619 349Q619 169 547 79T343 -12ZM343 21Q452 21 515 97T579 319V379Q579 525 516 601T343 677Q234 677 171 601T107
379V319Q107 173 170 97T343 21ZM331 764L307 777L412 935L444 918L331 764Z" />
<glyph unicode="&#xd4;" glyph-name="Ocircumflex" horiz-adv-x="686" d="M343 -12Q212 -12 140 78T67 349Q67 529 139 619T343 710Q474 710 546 620T619 349Q619 169 547 79T343 -12ZM343 21Q452 21 515 97T579 319V379Q579 525 516 601T343 677Q234 677 171
601T107 379V319Q107 173 170 97T343 21ZM364 926L488 790L467 775L343 899L219 775L198 790L322 926H364Z" />
<glyph unicode="&#xd5;" glyph-name="Otilde" horiz-adv-x="686" d="M343 -12Q212 -12 140 78T67 349Q67 529 139 619T343 710Q474 710 546 620T619 349Q619 169 547 79T343 -12ZM343 21Q452 21 515 97T579 319V379Q579 525 516 601T343 677Q234 677 171 601T107
379V319Q107 173 170 97T343 21ZM414 802Q395 802 378 809T337 831Q314 845 299 850T270 856Q252 856 237 849T206 825L189 843Q206 863 226 874T272 886Q291 886 308 879T349 857Q372 843 387 838T416 832Q434 832 449 839T480 863L497 845Q480 825 460 814T414
802Z" />
<glyph unicode="&#xd6;" glyph-name="Odieresis" horiz-adv-x="686" d="M343 -12Q212 -12 140 78T67 349Q67 529 139 619T343 710Q474 710 546 620T619 349Q619 169 547 79T343 -12ZM343 21Q452 21 515 97T579 319V379Q579 525 516 601T343 677Q234 677 171 601T107
379V319Q107 173 170 97T343 21ZM252 812Q235 812 229 820T222 839V847Q222 858 228 866T252 874Q268 874 274 866T281 847V839Q281 828 275 820T252 812ZM434 812Q418 812 412 820T405 839V847Q405 858 411 866T434 874Q451 874 457 866T464 847V839Q464 828 458
820T434 812Z" />
<glyph unicode="&#xd7;" glyph-name="multiply" horiz-adv-x="600" d="M300 283L124 106L102 128L278 305L102 482L124 504L300 327L476 504L498 482L322 305L498 128L476 106L300 283Z" />
<glyph unicode="&#xd8;" glyph-name="Oslash" horiz-adv-x="686" d="M343 -12Q228 -12 159 57L96 -34L69 -17L138 82Q103 127 85 193T67 349Q67 529 139 619T343 710Q458 710 527 641L592 734L618 717L548 617Q583 571 601 505T619 349Q619 169 547 79T343 -12ZM107
319Q107 253 120 202T159 113L506 611Q445 677 343 677Q234 677 171 601T107 379V319ZM579 379Q579 445 566 496T527 585L180 87Q241 21 343 21Q452 21 515 97T579 319V379Z" />
<glyph unicode="&#xd9;" glyph-name="Ugrave" horiz-adv-x="658" d="M134 698V268Q134 202 143 155T176 78T236 35T329 21Q384 21 421 34T482 78T514 155T524 268V698H561V274Q561 197 549 143T510 54T438 4T328 -12Q263 -12 219 3T148 53T109 142T97 274V698H134ZM226
918L258 935L363 777L339 764L226 918Z" />
<glyph unicode="&#xda;" glyph-name="Uacute" horiz-adv-x="658" d="M134 698V268Q134 202 143 155T176 78T236 35T329 21Q384 21 421 34T482 78T514 155T524 268V698H561V274Q561 197 549 143T510 54T438 4T328 -12Q263 -12 219 3T148 53T109 142T97 274V698H134ZM316
764L292 777L397 935L429 918L316 764Z" />
<glyph unicode="&#xdb;" glyph-name="Ucircumflex" horiz-adv-x="658" d="M134 698V268Q134 202 143 155T176 78T236 35T329 21Q384 21 421 34T482 78T514 155T524 268V698H561V274Q561 197 549 143T510 54T438 4T328 -12Q263 -12 219 3T148 53T109 142T97 274V698H134ZM349
926L473 790L452 775L328 899L204 775L183 790L307 926H349Z" />
<glyph unicode="&#xdc;" glyph-name="Udieresis" horiz-adv-x="658" d="M134 698V268Q134 202 143 155T176 78T236 35T329 21Q384 21 421 34T482 78T514 155T524 268V698H561V274Q561 197 549 143T510 54T438 4T328 -12Q263 -12 219 3T148 53T109 142T97 274V698H134ZM237
812Q220 812 214 820T207 839V847Q207 858 213 866T237 874Q253 874 259 866T266 847V839Q266 828 260 820T237 812ZM419 812Q403 812 397 820T390 839V847Q390 858 396 866T419 874Q436 874 442 866T449 847V839Q449 828 443 820T419 812Z" />
<glyph unicode="&#xdd;" glyph-name="Yacute" horiz-adv-x="557" d="M260 0V290L19 698H61L277 330H280L497 698H538L297 290V0H260ZM523 764L499 777L604 935L636 918L523 764Z" />
<glyph unicode="&#xde;" glyph-name="Thorn" horiz-adv-x="597" d="M104 0V698H141V545H375Q463 545 508 494T554 354Q554 266 509 215T375 163H141V0H104ZM141 196H375Q410 196 436 207T479 236T505 280T514 332V376Q514 403 506 428T480 471T436 501T375 512H141V196Z" />
<glyph unicode="&#xdf;" glyph-name="germandbls" horiz-adv-x="644" d="M600 131Q600 63 556 26T434 -12Q371 -12 326 9T245 79L272 99Q305 54 343 37T435 19Q498 19 532 47T566 128Q566 177 542 200T467 236L426 246Q397 253 373 262T332 287T306 323T297 377Q297
411 311 435T352 476T414 501T495 510V522Q495 618 453 669T329 721Q248 721 206 670T163 522V0H128V477H37V508H128V521Q128 573 141 616T180 689T243 735T329 752Q377 752 414 736T477 689T516 616T530 521V481H505Q467 481 435 475T380 457T344 425T331 378Q331
355 337 339T355 311T387 292T431 278L472 268Q532 253 566 224T600 131Z" />
<glyph unicode="&#xe0;" glyph-name="agrave" horiz-adv-x="522" d="M431 0Q390 0 388 42V79H384Q366 40 327 14T222 -12Q143 -12 100 26T57 133Q57 166 67 193T100 239T161 269T254 280H387V348Q387 420 352 454T248 489Q141 489 100 399L75 416Q96 463 137 491T249
520Q334 520 378 477T422 352V31H500V0H431ZM225 19Q258 19 287 27T339 52T374 92T387 148V252H254Q170 252 132 224T94 148V120Q94 70 130 45T225 19ZM405 740L437 758L542 600L518 587L405 740Z" />
<glyph unicode="&#xe1;" glyph-name="aacute" horiz-adv-x="522" d="M431 0Q390 0 388 42V79H384Q366 40 327 14T222 -12Q143 -12 100 26T57 133Q57 166 67 193T100 239T161 269T254 280H387V348Q387 420 352 454T248 489Q141 489 100 399L75 416Q96 463 137 491T249
520Q334 520 378 477T422 352V31H500V0H431ZM225 19Q258 19 287 27T339 52T374 92T387 148V252H254Q170 252 132 224T94 148V120Q94 70 130 45T225 19ZM495 587L471 600L576 758L608 740L495 587Z" />
<glyph unicode="&#xe2;" glyph-name="acircumflex" horiz-adv-x="522" d="M431 0Q390 0 388 42V79H384Q366 40 327 14T222 -12Q143 -12 100 26T57 133Q57 166 67 193T100 239T161 269T254 280H387V348Q387 420 352 454T248 489Q141 489 100 399L75 416Q96 463
137 491T249 520Q334 520 378 477T422 352V31H500V0H431ZM225 19Q258 19 287 27T339 52T374 92T387 148V252H254Q170 252 132 224T94 148V120Q94 70 130 45T225 19ZM528 748L652 613L631 597L507 722L383 597L362 613L486 748H528Z" />
<glyph unicode="&#xe3;" glyph-name="atilde" horiz-adv-x="522" d="M431 0Q390 0 388 42V79H384Q366 40 327 14T222 -12Q143 -12 100 26T57 133Q57 166 67 193T100 239T161 269T254 280H387V348Q387 420 352 454T248 489Q141 489 100 399L75 416Q96 463 137 491T249
520Q334 520 378 477T422 352V31H500V0H431ZM225 19Q258 19 287 27T339 52T374 92T387 148V252H254Q170 252 132 224T94 148V120Q94 70 130 45T225 19ZM578 624Q559 624 542 631T501 653Q478 667 463 673T434 679Q416 679 401 671T370 647L353 666Q389 708 436
708Q455 708 472 701T513 679Q536 665 551 659T580 653Q598 653 613 661T644 685L661 666Q625 624 578 624Z" />
<glyph unicode="&#xe4;" glyph-name="adieresis" horiz-adv-x="522" d="M431 0Q390 0 388 42V79H384Q366 40 327 14T222 -12Q143 -12 100 26T57 133Q57 166 67 193T100 239T161 269T254 280H387V348Q387 420 352 454T248 489Q141 489 100 399L75 416Q96 463 137
491T249 520Q334 520 378 477T422 352V31H500V0H431ZM225 19Q258 19 287 27T339 52T374 92T387 148V252H254Q170 252 132 224T94 148V120Q94 70 130 45T225 19ZM416 636Q399 636 393 644T386 663V671Q386 682 392 690T416 698Q432 698 438 690T445 671V663Q445
652 439 644T416 636ZM598 636Q582 636 576 644T569 663V671Q569 682 575 690T598 698Q615 698 621 690T628 671V663Q628 652 622 644T598 636Z" />
<glyph unicode="&#xe5;" glyph-name="aring" horiz-adv-x="522" d="M431 0Q390 0 388 42V79H384Q366 40 327 14T222 -12Q143 -12 100 26T57 133Q57 166 67 193T100 239T161 269T254 280H387V348Q387 420 352 454T248 489Q141 489 100 399L75 416Q96 463 137 491T249
520Q334 520 378 477T422 352V31H500V0H431ZM225 19Q258 19 287 27T339 52T374 92T387 148V252H254Q170 252 132 224T94 148V120Q94 70 130 45T225 19ZM507 586Q464 586 438 613T411 683Q411 725 437 752T507 779Q550 779 576 752T603 683Q603 640 577 613T507
586ZM507 611Q538 611 556 629T574 676V689Q574 719 556 736T507 754Q476 754 458 737T440 689V676Q440 647 458 629T507 611Z" />
<glyph unicode="&#xe6;" glyph-name="ae" horiz-adv-x="862" d="M250 252Q166 252 129 224T91 148V120Q91 70 127 45T222 19Q255 19 284 27T335 52T370 92T383 148V252H250ZM767 280V286Q767 332 755 369T720 433T666 474T596 489Q554 489 522 475T466 433T431
368T419 284V280H767ZM600 19Q721 19 767 135L794 120Q771 60 722 24T601 -12Q528 -12 479 23T409 117H405Q399 88 383 64T343 23T287 -3T218 -12Q140 -12 97 26T53 133Q53 166 63 193T97 239T158 269T250 280H383V348Q383 420 348 454T245 489Q189 489 153 467T96
399L71 416Q92 463 133 491T245 520Q323 520 361 483T406 389H410Q430 448 478 484T598 520Q644 520 682 502T748 451T790 372T805 268V252H419V225Q419 178 431 140T466 75T523 34T600 19Z" />
<glyph unicode="&#xe7;" glyph-name="ccedilla" horiz-adv-x="491" d="M272 520Q336 520 378 492T443 416L414 400Q392 443 359 466T272 489Q186 489 141 433T95 283V225Q95 131 140 75T272 19Q329 19 365 42T425 108L451 90Q428 46 387 18T283 -12L269 -70L271
-72Q279 -70 287 -70T304 -69Q333 -69 352 -85T371 -129Q371 -161 347 -182T282 -203Q250 -203 228 -193T197 -169L216 -149Q226 -162 242 -169T282 -177Q307 -177 323 -165T339 -130Q339 -112 326 -100T276 -85L241 -82L257 -12Q162 -7 110 60T57 254Q57 385 113
452T272 520Z" />
<glyph unicode="&#xe8;" glyph-name="egrave" horiz-adv-x="537" d="M275 -12Q174 -12 116 56T57 254Q57 383 114 451T271 520Q318 520 356 502T422 451T465 372T480 268V252H94V225Q94 178 106 140T141 75T198 34T275 19Q396 19 442 135L469 120Q446 60 397 24T275
-12ZM271 489Q229 489 197 475T141 433T106 368T94 284V280H442V286Q442 332 430 369T395 433T341 474T271 489ZM426 740L458 758L563 600L539 587L426 740Z" />
<glyph unicode="&#xe9;" glyph-name="eacute" horiz-adv-x="537" d="M275 -12Q174 -12 116 56T57 254Q57 383 114 451T271 520Q318 520 356 502T422 451T465 372T480 268V252H94V225Q94 178 106 140T141 75T198 34T275 19Q396 19 442 135L469 120Q446 60 397 24T275
-12ZM271 489Q229 489 197 475T141 433T106 368T94 284V280H442V286Q442 332 430 369T395 433T341 474T271 489ZM516 587L492 600L597 758L629 740L516 587Z" />
<glyph unicode="&#xea;" glyph-name="ecircumflex" horiz-adv-x="537" d="M275 -12Q174 -12 116 56T57 254Q57 383 114 451T271 520Q318 520 356 502T422 451T465 372T480 268V252H94V225Q94 178 106 140T141 75T198 34T275 19Q396 19 442 135L469 120Q446 60
397 24T275 -12ZM271 489Q229 489 197 475T141 433T106 368T94 284V280H442V286Q442 332 430 369T395 433T341 474T271 489ZM549 748L673 613L652 597L528 722L404 597L383 613L507 748H549Z" />
<glyph unicode="&#xeb;" glyph-name="edieresis" horiz-adv-x="537" d="M275 -12Q174 -12 116 56T57 254Q57 383 114 451T271 520Q318 520 356 502T422 451T465 372T480 268V252H94V225Q94 178 106 140T141 75T198 34T275 19Q396 19 442 135L469 120Q446 60 397
24T275 -12ZM271 489Q229 489 197 475T141 433T106 368T94 284V280H442V286Q442 332 430 369T395 433T341 474T271 489ZM437 636Q420 636 414 644T407 663V671Q407 682 413 690T437 698Q453 698 459 690T466 671V663Q466 652 460 644T437 636ZM619 636Q603 636
597 644T590 663V671Q590 682 596 690T619 698Q636 698 642 690T649 671V663Q649 652 643 644T619 636Z" />
<glyph unicode="&#xec;" glyph-name="igrave" horiz-adv-x="235" d="M100 0V508H135V0H100ZM16 740L48 758L153 600L129 587L16 740Z" />
<glyph unicode="&#xed;" glyph-name="iacute" horiz-adv-x="235" d="M100 0V508H135V0H100ZM106 587L82 600L187 758L219 740L106 587Z" />
<glyph unicode="&#xee;" glyph-name="icircumflex" horiz-adv-x="235" d="M100 0V508H135V0H100ZM139 748L263 613L242 597L118 722L-6 597L-27 613L97 748H139Z" />
<glyph unicode="&#xef;" glyph-name="idieresis" horiz-adv-x="235" d="M100 0V508H135V0H100ZM27 636Q10 636 4 644T-3 663V671Q-3 682 3 690T27 698Q43 698 49 690T56 671V663Q56 652 50 644T27 636ZM209 636Q193 636 187 644T180 663V671Q180 682 186 690T209
698Q226 698 232 690T239 671V663Q239 652 233 644T209 636Z" />
<glyph unicode="&#xf0;" glyph-name="eth" horiz-adv-x="548" d="M407 732L306 659Q341 626 373 583T431 488T471 377T486 253Q486 189 471 140T427 57T359 6T271 -12Q223 -12 184 6T116 57T73 139T57 248Q57 307 72 354T116 433T183 483T271 501Q322 501 361
479T426 416L429 418Q406 486 367 541T282 642L181 569L166 589L263 659Q240 679 209 701T145 740H202Q223 727 243 712T287 677L392 752L407 732ZM271 19Q310 19 342 33T398 72T435 134T448 217V272Q448 318 435 354T399 416T343 456T271 470Q232 470 200 457T145
418T108 355T95 272V217Q95 171 108 134T144 72T200 33T271 19Z" />
<glyph unicode="&#xf1;" glyph-name="ntilde" horiz-adv-x="559" d="M100 0V508H135V430H138Q153 467 190 493T294 520Q378 520 422 471T467 326V0H432V320Q432 408 395 448T286 489Q257 489 230 481T181 457T148 417T135 361V0H100ZM613 624Q594 624 577 631T536
653Q513 667 498 673T469 679Q451 679 436 671T405 647L388 666Q424 708 471 708Q490 708 507 701T548 679Q571 665 586 659T615 653Q633 653 648 661T679 685L696 666Q660 624 613 624Z" />
<glyph unicode="&#xf2;" glyph-name="ograve" horiz-adv-x="544" d="M272 -12Q172 -12 115 56T57 254Q57 385 114 452T272 520Q372 520 429 453T487 254Q487 124 430 56T272 -12ZM272 19Q357 19 403 74T449 227V281Q449 379 403 434T272 489Q187 489 141 434T95
281V227Q95 130 141 75T272 19ZM427 740L459 758L564 600L540 587L427 740Z" />
<glyph unicode="&#xf3;" glyph-name="oacute" horiz-adv-x="544" d="M272 -12Q172 -12 115 56T57 254Q57 385 114 452T272 520Q372 520 429 453T487 254Q487 124 430 56T272 -12ZM272 19Q357 19 403 74T449 227V281Q449 379 403 434T272 489Q187 489 141 434T95
281V227Q95 130 141 75T272 19ZM517 587L493 600L598 758L630 740L517 587Z" />
<glyph unicode="&#xf4;" glyph-name="ocircumflex" horiz-adv-x="544" d="M272 -12Q172 -12 115 56T57 254Q57 385 114 452T272 520Q372 520 429 453T487 254Q487 124 430 56T272 -12ZM272 19Q357 19 403 74T449 227V281Q449 379 403 434T272 489Q187 489 141
434T95 281V227Q95 130 141 75T272 19ZM550 748L674 613L653 597L529 722L405 597L384 613L508 748H550Z" />
<glyph unicode="&#xf5;" glyph-name="otilde" horiz-adv-x="544" d="M272 -12Q172 -12 115 56T57 254Q57 385 114 452T272 520Q372 520 429 453T487 254Q487 124 430 56T272 -12ZM272 19Q357 19 403 74T449 227V281Q449 379 403 434T272 489Q187 489 141 434T95
281V227Q95 130 141 75T272 19ZM600 624Q581 624 564 631T523 653Q500 667 485 673T456 679Q438 679 423 671T392 647L375 666Q411 708 458 708Q477 708 494 701T535 679Q558 665 573 659T602 653Q620 653 635 661T666 685L683 666Q647 624 600 624Z" />
<glyph unicode="&#xf6;" glyph-name="odieresis" horiz-adv-x="544" d="M272 -12Q172 -12 115 56T57 254Q57 385 114 452T272 520Q372 520 429 453T487 254Q487 124 430 56T272 -12ZM272 19Q357 19 403 74T449 227V281Q449 379 403 434T272 489Q187 489 141 434T95
281V227Q95 130 141 75T272 19ZM438 636Q421 636 415 644T408 663V671Q408 682 414 690T438 698Q454 698 460 690T467 671V663Q467 652 461 644T438 636ZM620 636Q604 636 598 644T591 663V671Q591 682 597 690T620 698Q637 698 643 690T650 671V663Q650 652 644
644T620 636Z" />
<glyph unicode="&#xf7;" glyph-name="divide" horiz-adv-x="600" d="M63 290V321H537V290H63ZM300 74Q279 74 269 83T259 106V117Q259 149 300 149Q341 149 341 117V106Q341 92 331 83T300 74ZM300 461Q279 461 269 470T259 493V505Q259 519 269 528T300 537Q321
537 331 528T341 505V493Q341 479 331 470T300 461Z" />
<glyph unicode="&#xf8;" glyph-name="oslash" horiz-adv-x="544" d="M36 -13L104 71Q81 104 69 150T57 254Q57 385 114 452T272 520Q365 520 421 462L488 545L509 529L438 441Q487 374 487 254Q487 124 430 56T272 -12Q175 -12 121 50L57 -29L36 -13ZM272 19Q357
19 403 74T449 227V281Q449 362 416 415L141 75Q188 19 272 19ZM95 227Q95 188 103 156T125 97L400 436Q355 489 272 489Q187 489 141 434T95 281V227Z" />
<glyph unicode="&#xf9;" glyph-name="ugrave" horiz-adv-x="559" d="M424 78H420Q413 61 401 45T370 16T325 -4T265 -12Q181 -12 136 37T91 182V508H126V188Q126 100 164 60T273 19Q302 19 329 27T378 50T411 90T424 148V508H459V0H424V78ZM430 740L462 758L567
600L543 587L430 740Z" />
<glyph unicode="&#xfa;" glyph-name="uacute" horiz-adv-x="559" d="M424 78H420Q413 61 401 45T370 16T325 -4T265 -12Q181 -12 136 37T91 182V508H126V188Q126 100 164 60T273 19Q302 19 329 27T378 50T411 90T424 148V508H459V0H424V78ZM520 587L496 600L601
758L633 740L520 587Z" />
<glyph unicode="&#xfb;" glyph-name="ucircumflex" horiz-adv-x="559" d="M424 78H420Q413 61 401 45T370 16T325 -4T265 -12Q181 -12 136 37T91 182V508H126V188Q126 100 164 60T273 19Q302 19 329 27T378 50T411 90T424 148V508H459V0H424V78ZM553 748L677 613L656
597L532 722L408 597L387 613L511 748H553Z" />
<glyph unicode="&#xfc;" glyph-name="udieresis" horiz-adv-x="559" d="M424 78H420Q413 61 401 45T370 16T325 -4T265 -12Q181 -12 136 37T91 182V508H126V188Q126 100 164 60T273 19Q302 19 329 27T378 50T411 90T424 148V508H459V0H424V78ZM441 636Q424 636
418 644T411 663V671Q411 682 417 690T441 698Q457 698 463 690T470 671V663Q470 652 464 644T441 636ZM623 636Q607 636 601 644T594 663V671Q594 682 600 690T623 698Q640 698 646 690T653 671V663Q653 652 647 644T623 636Z" />
<glyph unicode="&#xfd;" glyph-name="yacute" horiz-adv-x="462" d="M403 508H438L190 -167Q182 -185 171 -192T138 -200H64V-169H154L214 -10L23 508H60L230 38H233L403 508ZM477 587L453 600L558 758L590 740L477 587Z" />
<glyph unicode="&#xfe;" glyph-name="thorn" horiz-adv-x="567" d="M100 740H135V429H138Q155 466 195 493T299 520Q399 520 454 453T510 254Q510 123 455 56T299 -12Q235 -12 195 15T138 79H135V-200H100V740ZM294 20Q379 20 425 75T472 225V283Q472 378 426
433T294 489Q262 489 233 480T183 454T148 414T135 362V148Q135 119 148 96T182 55T233 29T294 20Z" />
<glyph unicode="&#xff;" glyph-name="ydieresis" horiz-adv-x="462" d="M403 508H438L190 -167Q182 -185 171 -192T138 -200H64V-169H154L214 -10L23 508H60L230 38H233L403 508ZM398 636Q381 636 375 644T368 663V671Q368 682 374 690T398 698Q414 698 420 690T427
671V663Q427 652 421 644T398 636ZM580 636Q564 636 558 644T551 663V671Q551 682 557 690T580 698Q597 698 603 690T610 671V663Q610 652 604 644T580 636Z" />
<glyph unicode="&#x2013;" glyph-name="endash" horiz-adv-x="588" d="M36 289V321H552V289H36Z" />
<glyph unicode="&#x2014;" glyph-name="emdash" horiz-adv-x="780" d="M36 289V321H744V289H36Z" />
<glyph unicode="&#x2018;" glyph-name="quoteleft" horiz-adv-x="248" d="M119 528Q101 528 93 537T85 562V574Q85 616 107 662T165 740H195Q159 704 143 668T121 602Q140 601 147 593T155 572V562Q155 547 147 538T119 528Z" />
<glyph unicode="&#x2019;" glyph-name="quoteright" horiz-adv-x="248" d="M129 750Q147 750 155 741T163 716V704Q163 662 141 616T83 538H53Q89 574 105 610T127 676Q108 677 101 685T93 706V716Q93 731 101 740T129 750Z" />
<glyph unicode="&#x201a;" glyph-name="quotesinglbase" horiz-adv-x="248" d="M124 82Q142 82 150 73T159 48V36Q159 -6 136 -52T78 -130H48Q84 -94 101 -58T122 8Q103 9 96 18T89 38V48Q89 63 97 72T124 82Z" />
<glyph unicode="&#x201c;" glyph-name="quotedblleft" horiz-adv-x="418" d="M119 528Q101 528 93 537T85 562V574Q85 616 107 662T165 740H195Q159 704 143 668T121 602Q140 601 147 593T155 572V562Q155 547 147 538T119 528ZM289 528Q271 528 263 537T255 562V574Q255
616 277 662T335 740H365Q329 704 313 668T291 602Q310 601 317 593T325 572V562Q325 547 317 538T289 528Z" />
<glyph unicode="&#x201d;" glyph-name="quotedblright" horiz-adv-x="418" d="M129 750Q147 750 155 741T163 716V704Q163 662 141 616T83 538H53Q89 574 105 610T127 676Q108 677 101 685T93 706V716Q93 731 101 740T129 750ZM299 750Q317 750 325 741T333 716V704Q333
662 311 616T253 538H223Q259 574 275 610T297 676Q278 677 271 685T263 706V716Q263 731 271 740T299 750Z" />
<glyph unicode="&#x201e;" glyph-name="quotedblbase" horiz-adv-x="418" d="M124 82Q142 82 150 73T159 48V36Q159 -6 136 -52T78 -130H48Q84 -94 101 -58T122 8Q103 9 96 18T89 38V48Q89 63 97 72T124 82ZM294 82Q312 82 320 73T329 48V36Q329 -6 306 -52T248
-130H218Q254 -94 271 -58T292 8Q273 9 266 18T259 38V48Q259 63 267 72T294 82Z" />
<glyph unicode="&#x2022;" glyph-name="bullet" horiz-adv-x="350" d="M175 210Q124 210 102 233T80 292V316Q80 351 102 374T175 398Q226 398 248 375T270 316V292Q270 257 248 234T175 210Z" />
<glyph unicode="&#x2039;" glyph-name="guilsinglleft" horiz-adv-x="295" d="M231 100L34 275V308L231 483L244 459L71 292L244 124L231 100Z" />
<glyph unicode="&#x203a;" glyph-name="guilsinglright" horiz-adv-x="295" d="M51 124L224 292L51 459L64 483L261 308V275L64 100L51 124Z" />
</font>
</defs>
</svg>
